<?xml version="1.0" encoding="utf-8"?>
<svg version="1.1"
	 xmlns="http://www.w3.org/2000/svg" xmlns:xlink="http://www.w3.org/1999/xlink" x="0px" y="0px" width="96px" height="96px"
	 viewBox="0 0 96 96" enable-background="new 0 0 96 96">
	 <switch><g><path d="M80,4c-6.628,0-12,5.372-12,12v64c0,6.628,5.372,12,12,12s12-5.372,12-12V16C92,9.372,86.628,4,80,4z M84,80 c0,2.209-1.791,4-4,4s-4-1.791-4-4V16c0-2.209,1.791-4,4-4s4,1.791,4,4V80z M48,28c-6.628,0-12,5.372-12,12v40 c0,6.628,5.372,12,12,12s12-5.372,12-12V40C60,33.372,54.628,28,48,28z M52,80c0,2.209-1.791,4-4,4s-4-1.791-4-4V40 c0-2.209,1.791-4,4-4s4,1.791,4,4V80z M16,52C9.372,52,4,57.372,4,64v16c0,6.628,5.372,12,12,12s12-5.372,12-12V64 C28,57.372,22.628,52,16,52z M20,80c0,2.209-1.791,4-4,4s-4-1.791-4-4V64c0-2.209,1.791-4,4-4s4,1.791,4,4V80z"/></g></switch>
</svg>
