<?xml version="1.0" encoding="utf-8"?>
<svg version="1.1" xmlns="http://www.w3.org/2000/svg" xmlns:xlink="http://www.w3.org/1999/xlink" x="0px" y="0px" width="96px" height="96px" viewBox="0 0 96 96" enable-background="new 0 0 96 96">
	 <g> <path d="M84,19.999H72L64,8H32l-8,12H12C5.37,20,0,25.434,0,32.062V76c0,6.63,5.37,12,12,12h72c6.63,0,12-5.309,12-11.938V32.124 C96,25.494,90.63,19.999,84,19.999z M88,76.062C88,78.273,86.243,80,84,80H12c-2.206,0-4-1.794-4-4V32.062 C8,29.823,9.794,28,12,28h16.281l8-12h23.578l7.859,12H84c2.168,0,4,1.889,4,4.125V76.062z M48,32c-11.046,0-20,8.955-20,20 s8.955,20,20,20c11.046,0,20-8.954,20-20S59.046,32,48,32z M48,64c-6.617,0-12-5.383-12-12s5.382-12,12-12c6.617,0,12,5.383,12,12 S54.616,64,48,64z"/> </g>
</svg>
