<?xml version="1.0" encoding="utf-8"?>
<!-- Generator: Adobe Illustrator 16.0.0, SVG Export Plug-In . SVG Version: 6.00 Build 0)  -->
<!DOCTYPE svg PUBLIC "-//W3C//DTD SVG 1.1//EN" "http://www.w3.org/Graphics/SVG/1.1/DTD/svg11.dtd">
<svg version="1.1" id="Layer_1" xmlns="http://www.w3.org/2000/svg" xmlns:xlink="http://www.w3.org/1999/xlink" x="0px" y="0px"
	 width="148px" height="96px" viewBox="0 0 148 96" enable-background="new 0 0 148 96" xml:space="preserve">
<path fill="#3EA301" d="M48,4C23.699,4,4,23.7,4,48c0,24.301,19.699,44,44,44s44-19.699,44-44C92,23.7,72.301,4,48,4z M48,84
	c-19.882,0-36-16.117-36-36c0-19.882,16.118-36,36-36s36,16.118,36,36C84,67.883,67.882,84,48,84z M62.828,57.172
	c1.563,1.563,1.563,4.095,0,5.657C62.048,63.609,61.023,64,60,64c-1.023,0.001-2.047-0.39-2.828-1.171l-12-12
	C44.422,50.079,44,49.062,44,48V24c0-2.209,1.791-4,4-4s4,1.791,4,4v22.344L62.828,57.172z"/>
<g>
	<path fill="#3EA301" d="M104.132,16.638c0-0.983,0.394-2.161,1.179-2.946c1.571-1.571,4.124-1.571,5.892,0l31.618,31.621
		c1.572,1.57,1.572,4.32,0,5.89l-31.618,31.62c-1.571,1.57-4.125,1.57-5.892,0c-1.573-1.57-1.573-4.126,0-5.893l28.672-28.674
		l-28.672-28.672C104.525,18.798,104.132,17.619,104.132,16.638z"/>
</g>
</svg>
