<?xml version="1.0" encoding="utf-8"?>
<!-- Generator: Adobe Illustrator 16.0.0, SVG Export Plug-In . SVG Version: 6.00 Build 0)  -->
<!DOCTYPE svg PUBLIC "-//W3C//DTD SVG 1.1//EN" "http://www.w3.org/Graphics/SVG/1.1/DTD/svg11.dtd">
<svg version="1.1" id="Layer_1" xmlns="http://www.w3.org/2000/svg" xmlns:xlink="http://www.w3.org/1999/xlink" x="0px" y="0px"
	 width="148px" height="96px" viewBox="0 0 148 96" enable-background="new 0 0 148 96" xml:space="preserve">
<path fill="#B01701" d="M100,4C75.699,4,56,23.7,56,48c0,24.301,19.699,44,44,44s44-19.699,44-44C144,23.7,124.301,4,100,4z M100,84
	c-19.882,0-36-16.117-36-36c0-19.882,16.118-36,36-36s36,16.118,36,36C136,67.883,119.882,84,100,84z M114.828,57.172
	c1.563,1.563,1.563,4.095,0,5.657C114.048,63.609,113.023,64,112,64c-1.023,0.001-2.047-0.39-2.828-1.171l-12-12
	C96.422,50.079,96,49.062,96,48V24c0-2.209,1.791-4,4-4s4,1.791,4,4v22.344L114.828,57.172z"/>
<g>
	<path fill="#B01701" d="M42.689,19.583L14.018,48.256L42.689,76.93c1.573,1.767,1.573,4.322,0,5.893c-1.767,1.57-4.32,1.57-5.892,0
		L5.18,51.202c-1.572-1.57-1.572-4.32,0-5.89l31.618-31.621c1.768-1.571,4.32-1.571,5.892,0c0.785,0.785,1.179,1.963,1.179,2.946
		C43.868,17.619,43.475,18.798,42.689,19.583z"/>
</g>
</svg>
