<?xml version="1.0" encoding="utf-8"?>
<svg version="1.1" xmlns="http://www.w3.org/2000/svg" xmlns:xlink="http://www.w3.org/1999/xlink" x="0px" y="0px" width="96px" height="96px" viewBox="0 0 96 96" enable-background="new 0 0 96 96">
	 <g><path d="M53.657,48l25.171-25.172c1.562-1.562,1.562-4.095,0-5.656c-1.562-1.562-4.094-1.562-5.656,0L48,42.343L22.829,17.172 c-1.562-1.562-4.095-1.562-5.657,0c-1.562,1.562-1.562,4.095,0,5.656L42.344,48L17.172,73.172c-1.562,1.562-1.562,4.095,0,5.656 C17.953,79.609,18.977,80,20,80s2.048-0.391,2.829-1.172L48,53.657l25.172,25.171C73.953,79.609,74.977,80,76,80 s2.048-0.391,2.828-1.172c1.562-1.562,1.562-4.095,0-5.656L53.657,48z"/></g>
</svg>
