
<svg xmlns="http://www.w3.org/2000/svg" xmlns:xlink="http://www.w3.org/1999/xlink" version="1.1" x="0px" y="0px" viewBox="0 0 100 100" style="enable-background:new 0 0 100 100;" xml:space="preserve">
  <g>
    <path d="M29.5,94l52.4-52.4c6.4-6.4,6.4-16.8,0-23.1c-3.1-3.1-7.2-4.8-11.6-4.8c0,0,0,0,0,0c-4.4,0-8.5,1.7-11.6,4.8L6.3,70.9   l0.2,22.9L29.5,94z M26.1,86l-11.6-0.1l-0.1-11.6L26.1,86z M64.4,24.1c1.6-1.6,3.7-2.5,5.9-2.5c0,0,0,0,0,0c2.2,0,4.3,0.9,5.9,2.5   c3.3,3.3,3.3,8.6,0,11.8L31.8,80.4L19.9,68.5L64.4,24.1z"/>
  </g>
</svg>
