<?xml version="1.0" encoding="utf-8"?>
<svg version="1.1" xmlns="http://www.w3.org/2000/svg" xmlns:xlink="http://www.w3.org/1999/xlink" x="0px" y="0px" width="96px" height="96px" viewBox="0 0 96 96" enable-background="new 0 0 96 96">
	<switch><g><path d="M80,4H16C9.372,4,4,9.373,4,16v64c0,6.627,5.372,12,12,12h64c6.628,0,12-5.373,12-12V16C92,9.373,86.628,4,80,4z M16,12 h64c2.209,0,4,1.791,4,4v12H12V16C12,13.791,13.791,12,16,12z M12,80V36h20v48H16C13.791,84,12,82.209,12,80z M80,84H40V36h44v44 C84,82.209,82.209,84,80,84z"/></g></switch>
</svg>
