<?xml version="1.0" encoding="utf-8"?>
<!-- Generator: Adobe Illustrator 16.0.0, SVG Export Plug-In . SVG Version: 6.00 Build 0)  -->
<!DOCTYPE svg PUBLIC "-//W3C//DTD SVG 1.1//EN" "http://www.w3.org/Graphics/SVG/1.1/DTD/svg11.dtd">
<svg version="1.1" id="Layer_1" xmlns="http://www.w3.org/2000/svg" xmlns:xlink="http://www.w3.org/1999/xlink" x="0px" y="0px"
	 width="96px" height="96px" viewBox="0 0 96 96" enable-background="new 0 0 96 96" xml:space="preserve">
<path d="M36,80c0,6.627,5.373,12,12,12s12-5.373,12-12s-5.373-12-12-12S36,73.373,36,80z M52,80c0,2.209-1.791,4-4,4s-4-1.791-4-4
	s1.791-4,4-4S52,77.791,52,80z M36,48c0,6.627,5.373,12,12,12s12-5.373,12-12s-5.373-12-12-12S36,41.373,36,48z M52,48
	c0,2.209-1.791,4-4,4s-4-1.791-4-4s1.791-4,4-4S52,45.791,52,48z M36,16c0,6.627,5.373,12,12,12s12-5.373,12-12S54.627,4,48,4
	S36,9.373,36,16z M52,16c0,2.209-1.791,4-4,4s-4-1.791-4-4s1.791-4,4-4S52,13.791,52,16z"/>
</svg>
