<?xml version="1.0" encoding="utf-8"?>
<!-- Generator: Adobe Illustrator 17.0.0, SVG Export Plug-In . SVG Version: 6.00 Build 0)  -->
<!DOCTYPE svg PUBLIC "-//W3C//DTD SVG 1.1//EN" "http://www.w3.org/Graphics/SVG/1.1/DTD/svg11.dtd">
<svg version="1.1" id="Layer_1" xmlns="http://www.w3.org/2000/svg" xmlns:xlink="http://www.w3.org/1999/xlink" x="0px" y="0px"
	 width="96px" height="96px" viewBox="0 0 96 96" enable-background="new 0 0 96 96" xml:space="preserve">
<path d="M40,36h38.344L59.716,17.373c-1.562-1.561-1.562-4.095,0-5.657c1.562-1.562,4.095-1.562,5.657,0l25.455,25.455
	c1.562,1.562,1.562,4.096,0,5.657L65.373,68.284c-1.563,1.562-4.096,1.562-5.657,0s-1.562-4.095,0-5.657L78.342,44H40
	c-15.464,0-28,12.536-28,28v4c0,2.209-1.791,4-4,4s-4-1.791-4-4v-4C4,52.117,20.118,36,40,36z"/>
</svg>
