<?xml version="1.0" encoding="utf-8"?>
<svg version="1.1" xmlns="http://www.w3.org/2000/svg" xmlns:xlink="http://www.w3.org/1999/xlink" x="0px" y="0px" width="96px" height="96px" viewBox="0 0 96 96" enable-background="new 0 0 96 96">
	 <g>
		 <path d="M90.829,85.172L68.128,62.471C73.055,56.312,76,48.5,76,40C76,20.118,59.883,4,40,4C20.118,4,4,20.118,4,40
			 s16.118,36,36,36c8.5,0,16.312-2.946,22.471-7.873l22.701,22.701C85.953,91.609,86.977,92,88,92c1.024,0,2.048-0.391,2.829-1.172
			 C92.391,89.267,92.391,86.733,90.829,85.172z M40,68c-15.464,0-28-12.536-28-28s12.536-28,28-28c15.465,0,28,12.536,28,28
			 S55.465,68,40,68z"/>
		 </g>
</svg>
