<svg xmlns="http://www.w3.org/2000/svg" width="96" height="96" viewBox="0 0 96 96">
	<path d="M72,21.174V12c0-6.63-5.37-12-12-12H36c-6.63,0-12,5.37-12,12v9.174C16.637,27.766,12,37.34,12,48s4.637,20.234,12,26.826
		V84c0,6.63,5.37,12,12,12h24c6.63,0,12-5.37,12-12v-9.174C79.363,68.234,84,58.66,84,48S79.363,27.766,72,21.174z M32,12
		c0-2.21,1.79-4,4-4h24c2.21,0,4,1.79,4,4v3.751C59.18,13.354,53.749,12,48,12s-11.179,1.354-16,3.751V12z M64,84
		c0,2.21-1.79,4-4,4H36c-2.21,0-4-1.79-4-4v-3.751C36.821,82.646,42.251,84,48,84s11.18-1.354,16-3.751V84z M48,76
		c-15.464,0-28-12.536-28-28s12.536-28,28-28s28,12.536,28,28S63.464,76,48,76z M56,60c-1.023,0-2.047-0.391-2.828-1.172l-8-8
		C44.422,50.078,44,49.061,44,48V32c0-2.209,1.791-4,4-4s4,1.791,4,4v14.343l6.828,6.829c1.562,1.562,1.562,4.095,0,5.656
		C58.047,59.609,57.023,60,56,60z"/>
</svg>
