<?xml version="1.0" encoding="utf-8"?>
<svg version="1.1" xmlns="http://www.w3.org/2000/svg" xmlns:xlink="http://www.w3.org/1999/xlink" x="0px" y="0px" width="96px" height="96px" viewBox="0 0 96 96" enable-background="new 0 0 96 96">
	 <switch><g><path d="M72,12H24L0,36v36c0,6.63,5.559,12,12.188,12H84c6.63,0,12-5.37,12-12V36.125L72,12z M27.312,20h41.523l15.862,16.081 L64,36c0,8-7.164,16-16,16c-8.837,0-16-8-16-16H11.312L27.312,20z M88,72c0,2.206-1.794,4-4,4H12.188C9.917,76,8,74.168,8,72V44 h17h0.242c3.455,9.123,12.625,16,22.637,16c10.002,0,19.104-6.864,22.566-15.975L88,44.094V72z"/></g></switch>
</svg>
