<svg xmlns="http://www.w3.org/2000/svg" width="417.438" height="419.251" viewBox="0 0 417.438 419.251">
  <path d="M394.488 396.3h-76.08v-59.623h76.08V396.3zM219.86 336.678h75.6V396.3h-75.6v-59.623zm-98.546 0h75.598V396.3h-75.598v-59.623zm-98.364 0h75.413V396.3H22.95v-59.623zm0-282.01h44.798c4.89 18.728 21.825 32.68 42.09 32.68 20.266 0 37.18-13.952 42.09-32.68h112.915c4.91 18.728 21.825 32.68 42.09 32.68s37.202-13.952 42.113-32.68h45.44v85.26H22.95v-85.26zm66.165-10.993c0-4.544 1.768-8.537 4.27-11.957 3.764-5.187 9.57-8.767 16.455-8.767 6.885 0 12.69 3.58 16.455 8.767 2.5 3.42 4.27 7.413 4.27 11.957 0 4.132-1.516 7.758-3.605 10.993-3.694 5.715-9.822 9.73-17.12 9.73-7.3 0-13.426-4.016-17.12-9.73-2.09-3.236-3.605-6.862-3.605-10.993zm197.094 0c0-4.544 1.767-8.537 4.268-11.957 3.764-5.187 9.57-8.767 16.455-8.767 6.886 0 12.69 3.58 16.455 8.767 2.502 3.42 4.27 7.413 4.27 11.957 0 4.132-1.516 7.758-3.604 10.993-3.695 5.715-9.822 9.73-17.12 9.73-7.3 0-13.427-4.016-17.12-9.73-2.067-3.236-3.605-6.862-3.605-10.993zm32.198 206.09h76.08v63.94h-76.08v-63.94zm-98.547 0h75.6v63.94h-75.6v-63.94zm-98.546 0h75.598v63.94h-75.598v-63.94zm-98.364 0h75.413v63.94H22.95v-63.94zm75.414-22.95H22.95v-63.937h75.413v63.938zm98.547 0h-75.597v-63.937h75.598v63.938zm98.548 0H219.86v-63.937h75.598v63.938zm99.03 0h-76.08v-63.937h76.08v63.938zm0-195.097h-45.763C343.492 13.47 326.855 0 306.933 0c-19.897 0-36.56 13.472-41.792 31.717H151.63C146.4 13.47 129.738 0 109.84 0 89.917 0 73.28 13.47 68.046 31.717H22.95C10.28 31.717 0 41.975 0 54.667V396.3c0 12.67 10.28 22.95 22.95 22.95h371.537c12.668 0 22.95-10.28 22.95-22.95V54.668c0-12.692-10.28-22.95-22.95-22.95z"/>
</svg>
