<?xml version="1.0" encoding="utf-8"?>
<!-- Generator: Adobe Illustrator 16.0.0, SVG Export Plug-In . SVG Version: 6.00 Build 0)  -->
<!DOCTYPE svg PUBLIC "-//W3C//DTD SVG 1.1//EN" "http://www.w3.org/Graphics/SVG/1.1/DTD/svg11.dtd">
<svg version="1.1" id="Layer_1" xmlns="http://www.w3.org/2000/svg" xmlns:xlink="http://www.w3.org/1999/xlink" x="0px" y="0px"
	 width="96px" height="96px" viewBox="0 0 96 96" enable-background="new 0 0 96 96" xml:space="preserve">
<path d="M9.84,52.09l20.376-20.376c2.25-2.25,2.25-5.9,0-8.151c-2.251-2.25-5.901-2.25-8.153,0L1.688,43.938
	c-2.25,2.25-2.25,5.899,0,8.151l20.379,20.377c2.25,2.252,5.9,2.252,8.15,0c2.251-2.248,2.251-5.898,0-8.149L12.721,46.821"/>
<path d="M86.065,52.093L65.688,31.715c-2.25-2.25-2.25-5.9,0-8.152c2.251-2.25,5.901-2.25,8.153,0L94.218,43.94
	c2.25,2.249,2.25,5.897,0,8.149L73.839,72.468c-2.25,2.251-5.9,2.251-8.15,0c-2.251-2.249-2.251-5.898,0-8.15l17.496-17.495"/>
</svg>
