<?xml version="1.0" encoding="utf-8"?>
<!-- Generator: Adobe Illustrator 16.0.0, SVG Export Plug-In . SVG Version: 6.00 Build 0)  -->
<!DOCTYPE svg PUBLIC "-//W3C//DTD SVG 1.1//EN" "http://www.w3.org/Graphics/SVG/1.1/DTD/svg11.dtd">
<svg version="1.1" id="Capa_1" xmlns="http://www.w3.org/2000/svg" xmlns:xlink="http://www.w3.org/1999/xlink" x="0px" y="0px"
	 width="489.6px" height="403.921px" viewBox="0 0 489.6 403.921" enable-background="new 0 0 489.6 403.921" xml:space="preserve">
<path d="M313.119,404.919c6.12,0,20.196,0,25.093-11.017c4.896-11.016-3.673-19.584-11.017-27.54
	c-2.448-3.06-6.731-7.344-7.956-9.792V331.48H453.88c20.195,0,36.721-16.523,36.721-36.72V37.72C490.6,17.524,474.074,1,453.879,1
	H37.72C17.524,1,1,17.524,1,37.72v257.04c0,20.194,16.522,36.72,36.72,36.72h134.64v25.704c-0.611,2.448-5.508,9.18-7.956,12.239
	c-6.73,8.568-13.464,17.137-8.566,26.929c1.836,4.284,6.73,8.567,16.522,8.567 M466.118,233.56H25.48V37.72
	c0-6.732,5.508-12.24,12.24-12.24h416.159c6.731,0,12.239,5.508,12.239,12.24V233.56z"/>
</svg>
