<?xml version="1.0" encoding="utf-8"?>
<svg version="1.1" xmlns="http://www.w3.org/2000/svg" xmlns:xlink="http://www.w3.org/1999/xlink" x="0px" y="0px" width="96px" height="96px" viewBox="0 0 96 96" enable-background="new 0 0 96 96">
     <switch><g>
      <path d="M64.671,53.256C69.188,48.893,72,42.775,72,36V24C72,10.745,61.255,0,48,0S24,10.745,24,24v12
            c0,6.773,2.812,12.889,7.326,17.253C13.037,56.102,0,63.488,0,72.094V80c0,6.63,5.37,12,12,12h72c6.63,0,12-5.37,12-12v-7.875
            C96,63.52,82.962,56.111,64.671,53.256z M32,36V24c0-8.836,7.164-16,16-16c8.837,0,16,7.164,16,16v12c0,8.836-7.163,16-16,16
            C39.164,52,32,44.836,32,36z M88,80c0,2.206-1.794,4-4,4H12c-2.206,0-4-1.794-4-4v-7.906c0-0.932,2.305-3.941,9.152-6.812
            C25.156,61.925,36.4,60,48,60c11.594,0,22.835,1.93,30.842,5.294C85.693,68.174,88,71.189,88,72.125V80z"/>
   </g></switch>
</svg>
