<?xml version="1.0" encoding="utf-8"?>
<!-- Generator: Adobe Illustrator 16.0.0, SVG Export Plug-In . SVG Version: 6.00 Build 0)  -->
<!DOCTYPE svg PUBLIC "-//W3C//DTD SVG 1.1//EN" "http://www.w3.org/Graphics/SVG/1.1/DTD/svg11.dtd">
<svg version="1.1"
	 id="Capa_1" xmlns:dc="http://purl.org/dc/elements/1.1/" xmlns:svg="http://www.w3.org/2000/svg" xmlns:sodipodi="http://sodipodi.sourceforge.net/DTD/sodipodi-0.dtd" xmlns:cc="http://creativecommons.org/ns#" xmlns:rdf="http://www.w3.org/1999/02/22-rdf-syntax-ns#" xmlns:inkscape="http://www.inkscape.org/namespaces/inkscape"
	 xmlns="http://www.w3.org/2000/svg" xmlns:xlink="http://www.w3.org/1999/xlink" x="0px" y="0px" width="538.561px"
	 height="391.682px" viewBox="0 0 538.561 391.682" enable-background="new 0 0 538.561 391.682" xml:space="preserve">
<g transform="translate(0,-952.36218)">
	<path d="M101.981,953.362c-28.594,0-52.021,23.428-52.021,52.021v247.858H13.24c-0.385-0.02-0.769-0.02-1.147,0
		c-6.309,0.595-11.119,5.902-11.093,12.238v30.603c0,26.912,22.048,48.96,48.96,48.96H490.6c26.912,0,48.96-22.048,48.96-48.96
		v-30.603c0-6.76-5.479-12.237-12.24-12.238H490.6v-247.858c0-28.594-23.428-52.021-52.021-52.021L101.981,953.362L101.981,953.362z
		 M221.321,1253.242H74.441v-271.08h391.68v271.08H319.24"/>
</g>
</svg>
