<?xml version="1.0" encoding="utf-8"?>
<svg version="1.1" xmlns="http://www.w3.org/2000/svg" xmlns:xlink="http://www.w3.org/1999/xlink" x="0px" y="0px" width="96px" height="96px" viewBox="0 0 96 96">
	<g>
	 <path d="M80,4H16C9.37,4,4,9.37,4,16v64c0,6.63,5.37,12,12,12h64c6.63,0,12-5.37,12-12V16C92,9.37,86.63,4,80,4z M84,80
		 c0,2.21-1.79,4-4,4H16c-2.209,0-4-1.79-4-4V16c0-2.209,1.791-4,4-4h64c2.21,0,4,1.791,4,4V80z M61.172,35.271L44.201,52.243
		 l-8.485-8.485c-1.562-1.562-4.095-1.562-5.657,0c-1.562,1.562-1.562,4.095,0,5.656L41.37,60.727c1.563,1.562,4.096,1.562,5.658,0
		 l19.799-19.799c1.563-1.56,1.563-4.093,0.002-5.656C65.267,33.709,62.734,33.709,61.172,35.271z"/>
 </g>
</svg>
